<svg width="24" height="24" viewBox="0 0 24 24" fill="none" xmlns="http://www.w3.org/2000/svg">
	<path d="M18.7947 17.8047C18.8597 17.8697 18.9114 17.9469 18.9466 18.0318C18.9818 18.1168 19 18.2078 19 18.2998C19 18.3918 18.9819 18.4828 18.9468 18.5678C18.9116 18.6528 18.86 18.73 18.795 18.795C18.73 18.86 18.6528 18.9116 18.5678 18.9468C18.4828 18.9819 18.3918 19 18.2998 19C18.2078 19 18.1168 18.9818 18.0318 18.9466C17.9469 18.9114 17.8697 18.8597 17.8047 18.7947L11.9997 12.9896L6.19464 18.7947C6.06334 18.9258 5.88534 18.9994 5.69977 18.9994C5.5142 18.9993 5.33624 18.9256 5.20502 18.7944C5.0738 18.6631 5.00006 18.4852 5 18.2996C4.99994 18.114 5.07357 17.936 5.20471 17.8047L11.0098 11.9997L5.20471 6.19464C5.07357 6.06334 4.99994 5.88534 5 5.69977C5.00006 5.5142 5.0738 5.33624 5.20502 5.20502C5.33624 5.0738 5.5142 5.00006 5.69977 5C5.88534 4.99994 6.06334 5.07357 6.19464 5.20471L11.9997 11.0098L17.8047 5.20471C17.936 5.07357 18.114 4.99994 18.2996 5C18.4852 5.00006 18.6631 5.0738 18.7944 5.20502C18.9256 5.33624 18.9993 5.5142 18.9994 5.69977C18.9994 5.88534 18.9258 6.06334 18.7947 6.19464L12.9896 11.9997L18.7947 17.8047Z" fill="#0024FF"/>
</svg>
