<svg width="40" height="40" fill="none" xmlns="http://www.w3.org/2000/svg"><path d="M24.733 28.266v4.285c0 2.25-1.893 3.156-4.733 3.156s-4.733-.906-4.733-3.156v-4.285" stroke="#0024FF" stroke-width="1.28" stroke-linecap="round" stroke-linejoin="round"/><path d="M21.578 28.607V19.14a1.577 1.577 0 111.578 1.578h-6.312a1.578 1.578 0 110-3.156 1.502 1.502 0 011.578 1.578v9.467" stroke="#0024FF" stroke-width="1.28" stroke-linecap="round" stroke-linejoin="round"/><path d="M23.944 28.607a9.997 9.997 0 006.312-9.467A10.443 10.443 0 0020 8.885 10.443 10.443 0 009.744 19.14a9.996 9.996 0 006.311 9.467h7.89zm-8.677 3.155h9.466M20 1.927V4.94m0 30.767v2.367M2.645 17.562h3.614m.473-11.691l3.012 3.014m27.612 8.677H33.74m-.472-11.691l-3.012 3.014" stroke="#0024FF" stroke-width="1.28" stroke-linecap="round" stroke-linejoin="round"/></svg>