<svg width="49" height="49" viewBox="0 0 49 49" fill="none" xmlns="http://www.w3.org/2000/svg"><path d="M37.826 23.755 16.353 11.88c-.19-.126-.442-.126-.569 0-.19.126-.316.316-.316.505V36.07c0 .19.127.442.316.506.063.063.19.063.316.063s.19 0 .316-.063L37.89 24.702c.189-.126.315-.316.315-.505-.063-.127-.19-.38-.379-.442ZM16.67 35.06v-21.6l19.579 10.8-19.58 10.8Z" fill="#222"/><path d="M24.5.26c-13.2 0-24 10.737-24 24 0 13.2 10.737 24 24 24s24-10.737 24-24c0-13.2-10.8-24-24-24Zm0 46.737c-12.568 0-22.737-10.232-22.737-22.737C1.763 11.69 11.995 1.523 24.5 1.523c12.505 0 22.737 10.232 22.737 22.737 0 12.568-10.169 22.737-22.737 22.737Z" fill="#EAA814"/></svg>