<svg width="16" height="16" viewBox="0 0 16 16" fill="none" xmlns="http://www.w3.org/2000/svg">
<path d="M15.8047 8.13811L9.80472 14.1381C9.67969 14.2631 9.51011 14.3334 9.3333 14.3334C9.15648 14.3333 8.98691 14.2631 8.86189 14.1381C8.73687 14.013 8.66664 13.8435 8.66665 13.6666C8.66665 13.4898 8.7369 13.3203 8.86193 13.1952L13.7238 8.33334H0.666666C0.489855 8.33334 0.320286 8.26311 0.195262 8.13808C0.070238 8.01306 0 7.84349 0 7.66668C0 7.48987 0.070238 7.3203 0.195262 7.19527C0.320286 7.07025 0.489855 7.00001 0.666666 7.00001H13.7238L8.86193 2.13812C8.7369 2.0131 8.66665 1.84353 8.66665 1.66671C8.66664 1.4899 8.73687 1.32032 8.86189 1.19529C8.98691 1.07025 9.15648 1.00001 9.3333 1C9.51011 0.999992 9.67969 1.07022 9.80472 1.19525L15.8047 7.19524C15.8666 7.25715 15.9157 7.33065 15.9492 7.41154C15.9828 7.49243 16 7.57912 16 7.66668C16 7.75423 15.9828 7.84093 15.9492 7.92182C15.9157 8.00271 15.8666 8.0762 15.8047 8.13811Z" fill="white"/>
</svg>
