<svg width="19" height="20" viewBox="0 0 19 20" fill="none" xmlns="http://www.w3.org/2000/svg"><path d="M9.5 19.025a9.254 9.254 0 0 1-3.712-.751 9.58 9.58 0 0 1-3.013-2.028A9.594 9.594 0 0 1 .75 13.23 9.286 9.286 0 0 1 0 9.512c0-1.318.25-2.557.75-3.717a9.596 9.596 0 0 1 2.025-3.016A9.58 9.58 0 0 1 5.788.75 9.253 9.253 0 0 1 9.5 0a9.26 9.26 0 0 1 3.713.751 9.582 9.582 0 0 1 3.012 2.028 9.596 9.596 0 0 1 2.025 3.016c.5 1.16.75 2.399.75 3.717 0 1.319-.25 2.558-.75 3.717a9.594 9.594 0 0 1-2.025 3.017 9.583 9.583 0 0 1-3.012 2.028 9.26 9.26 0 0 1-3.713.75Zm0-1.502c2.217 0 4.104-.78 5.663-2.34 1.558-1.561 2.337-3.451 2.337-5.67 0-2.22-.779-4.11-2.337-5.671-1.559-1.56-3.446-2.34-5.663-2.34s-4.104.78-5.662 2.34C2.279 5.402 1.5 7.292 1.5 9.512c0 2.22.78 4.11 2.338 5.67 1.558 1.56 3.445 2.34 5.662 2.34Z" fill="#00A4E3"/><path fill="#00A4E3" d="M4.5 8.734h10v2h-10z"/></svg>