<svg width="24" height="27" viewBox="0 0 24 27" fill="none" xmlns="http://www.w3.org/2000/svg">
<g id="Icon Container">
<g id="Chinese-New-Year-Coin--Streamline-Ultimate 1" clip-path="url(#clip0_7648_460)">
<path id="Vector" d="M3.36493 4.49792V8.232" stroke="#0024FF" stroke-width="1.28" stroke-miterlimit="10" stroke-linecap="round" stroke-linejoin="round"/>
<path id="Vector_2" d="M1.49792 6.36499H5.232" stroke="#0024FF" stroke-width="1.28" stroke-miterlimit="10" stroke-linecap="round" stroke-linejoin="round"/>
<path id="Vector_3" d="M20.9152 22.3281V25.502" stroke="#0024FF" stroke-width="1.28" stroke-miterlimit="10" stroke-linecap="round" stroke-linejoin="round"/>
<path id="Vector_4" d="M19.3281 23.915H22.502" stroke="#0024FF" stroke-width="1.28" stroke-miterlimit="10" stroke-linecap="round" stroke-linejoin="round"/>
<path id="Vector_5" d="M12 20.1343C14.8357 20.1343 17.1344 17.8355 17.1344 15C17.1344 12.1643 14.8357 9.8656 12 9.8656C9.16439 9.8656 6.86566 12.1643 6.86566 15C6.86566 17.8355 9.16439 20.1343 12 20.1343Z" stroke="#0024FF" stroke-width="1.28" stroke-miterlimit="10" stroke-linecap="round" stroke-linejoin="round"/>
<path id="Vector_6" d="M13.867 13.1329H10.133V16.867H13.867V13.1329Z" stroke="#0024FF" stroke-width="1.28" stroke-miterlimit="10" stroke-linecap="round" stroke-linejoin="round"/>
<path id="Vector_7" d="M12 22.9349C16.3823 22.9349 19.935 19.3823 19.935 15C19.935 10.6176 16.3823 7.06506 12 7.06506C7.6177 7.06506 4.06512 10.6176 4.06512 15C4.06512 19.3823 7.6177 22.9349 12 22.9349Z" stroke="#0024FF" stroke-width="1.28" stroke-miterlimit="10" stroke-linecap="round" stroke-linejoin="round"/>
<path id="Vector_8" d="M3.59832 23.5884C3.49521 23.5884 3.41162 23.5049 3.41162 23.4017C3.41162 23.2986 3.49521 23.2151 3.59832 23.2151" stroke="#0024FF" stroke-width="1.28" stroke-miterlimit="10" stroke-linecap="round" stroke-linejoin="round"/>
<path id="Vector_9" d="M3.59833 23.5884C3.70144 23.5884 3.78503 23.5049 3.78503 23.4017C3.78503 23.2986 3.70144 23.2151 3.59833 23.2151" stroke="#0024FF" stroke-width="1.28" stroke-miterlimit="10" stroke-linecap="round" stroke-linejoin="round"/>
<path id="Vector_10" d="M21.3352 6.78493C21.2321 6.78493 21.1485 6.70139 21.1485 6.59828C21.1485 6.49516 21.2321 6.41162 21.3352 6.41162" stroke="#0024FF" stroke-width="1.28" stroke-miterlimit="10" stroke-linecap="round" stroke-linejoin="round"/>
<path id="Vector_11" d="M21.3352 6.78493C21.4383 6.78493 21.5219 6.70139 21.5219 6.59828C21.5219 6.49516 21.4383 6.41162 21.3352 6.41162" stroke="#0024FF" stroke-width="1.28" stroke-miterlimit="10" stroke-linecap="round" stroke-linejoin="round"/>
</g>
</g>
<defs>
<clipPath id="clip0_7648_460">
<rect width="24" height="24" fill="white" transform="translate(0 3)"/>
</clipPath>
</defs>
</svg>
