<svg width="19" height="20" viewBox="0 0 19 20" fill="none" xmlns="http://www.w3.org/2000/svg"><path d="M8.75 14.282h1.5v-4h4v-1.5h-4v-4h-1.5v4h-4v1.5h4v4Zm.75 4.75a9.263 9.263 0 0 1-3.712-.75 9.58 9.58 0 0 1-3.013-2.025A9.58 9.58 0 0 1 .75 13.244 9.263 9.263 0 0 1 0 9.532C0 8.216.25 6.978.75 5.82a9.583 9.583 0 0 1 2.025-3.012A9.58 9.58 0 0 1 5.788.782 9.263 9.263 0 0 1 9.5.032a9.27 9.27 0 0 1 3.713.75 9.583 9.583 0 0 1 3.012 2.025A9.583 9.583 0 0 1 18.25 5.82 9.27 9.27 0 0 1 19 9.532c0 1.317-.25 2.554-.75 3.712a9.58 9.58 0 0 1-2.025 3.013 9.583 9.583 0 0 1-3.012 2.025 9.27 9.27 0 0 1-3.713.75Zm0-1.5c2.217 0 4.104-.779 5.663-2.337 1.558-1.558 2.337-3.446 2.337-5.663 0-2.216-.779-4.104-2.337-5.663-1.559-1.558-3.446-2.337-5.663-2.337s-4.104.78-5.662 2.337C2.279 5.428 1.5 7.316 1.5 9.532c0 2.217.78 4.105 2.338 5.663 1.558 1.558 3.445 2.337 5.662 2.337Z" fill="#00A4E3"/></svg>