<svg width="220" height="112" viewBox="0 0 220 112" fill="none" xmlns="http://www.w3.org/2000/svg">
<path d="M60.2956 136H0V6.76905C0 4.03472 1.63321 1.57014 4.13862 0.523527C6.64403 -0.523088 9.52733 0.0549569 11.4455 1.98703L52.7917 43.6502C55.5881 46.4677 60.1203 46.4677 62.9167 43.6502L103.661 2.58085C107.075 -0.860282 112.61 -0.860282 116.023 2.58085L148.149 34.9698C149.789 36.6225 150.709 38.8646 150.709 41.2022C150.709 43.5398 149.789 45.7811 148.148 47.4346L60.2956 136Z" fill="#0024FF"/>
<path d="M220 136H76.8116L210.002 1.72954C211.677 0.0409447 214.196 -0.464407 216.384 0.449958C218.573 1.36432 220 3.5171 220 5.90461V136Z" fill="#0024FF"/>
</svg>
