<svg width="24" height="24" viewBox="0 0 24 24" fill="none" xmlns="http://www.w3.org/2000/svg">
<path d="M11.36 6.56C9.57776 6.56 7.8685 7.268 6.60826 8.52824C5.34801 9.78848 4.64001 11.4977 4.64001 13.28V14.24" stroke="#0024FF" stroke-width="1.28" stroke-linecap="round" stroke-linejoin="round"/>
<path d="M7.84001 17.4387C9.60733 17.4387 11.04 16.006 11.04 14.2387C11.04 12.4714 9.60733 11.0387 7.84001 11.0387C6.0727 11.0387 4.64001 12.4714 4.64001 14.2387C4.64001 16.006 6.0727 17.4387 7.84001 17.4387Z" fill="#0024FF" stroke="#0024FF" stroke-width="1.28" stroke-linecap="round" stroke-linejoin="round"/>
<path d="M19.36 6.56C17.5778 6.56 15.8685 7.268 14.6083 8.52824C13.348 9.78848 12.64 11.4977 12.64 13.28V14.24" stroke="#0024FF" stroke-width="1.28" stroke-linecap="round" stroke-linejoin="round"/>
<path d="M15.84 17.4387C17.6073 17.4387 19.04 16.006 19.04 14.2387C19.04 12.4714 17.6073 11.0387 15.84 11.0387C14.0727 11.0387 12.64 12.4714 12.64 14.2387C12.64 16.006 14.0727 17.4387 15.84 17.4387Z" fill="#0024FF" stroke="#0024FF" stroke-width="1.28" stroke-linecap="round" stroke-linejoin="round"/>
</svg>
