<?xml version="1.0" encoding="utf-8"?>
<!-- Generator: Adobe Illustrator 27.5.0, SVG Export Plug-In . SVG Version: 6.00 Build 0)  -->
<svg version="1.1" id="Layer_1" xmlns="http://www.w3.org/2000/svg" xmlns:xlink="http://www.w3.org/1999/xlink" x="0px" y="0px"
	 viewBox="0 0 800 800" style="enable-background:new 0 0 800 800;" xml:space="preserve">
<style type="text/css">
	.st0{opacity:5.000000e-02;fill:#FFFFFF;enable-background:new    ;}
	.st1{opacity:0.2;fill:#FFFFFF;enable-background:new    ;}
	.st2{opacity:0.1;fill:#FFFFFF;enable-background:new    ;}
	.st3{fill:#FFFFFF;}
	.st4{fill:#ECECEA;}
</style>
<image style="overflow:visible;" width="1535" height="474" xlink:href="../../Downloads/MicrosoftTeams-image (8).png"  transform="matrix(1.8048 0 0 1.8048 -588.475 1794.101)">
</image>
<path class="st0" d="M-439.4,1604.8c-14.8,0-29.7,0.8-44.7,2.5c-219.5,24.3-377.8,222.1-353.4,441.7
	c22.7,204.5,195.9,355.8,397,355.8c14.7,0,29.6-0.8,44.6-2.5c219.5-24.3,377.7-222.1,353.4-441.7
	C-65.2,1756.2-238.4,1604.8-439.4,1604.8 M-577.9,2087.7c-57.2-37.4-97.8-99-106-172.2c-14.4-130,79.3-247.2,209.3-261.6
	c8.9-1,17.7-1.5,26.5-1.5c119.1,0,221.6,89.7,235.1,210.7c2.8,25.1,1.5,49.7-3.2,73.2c36,33.8,60.7,80.1,66.5,133
	c13.1,117.9-71.8,224.1-189.7,237.2c-8,0.9-16.1,1.3-24,1.3c-108,0-201-81.3-213.2-191.1C-577.7,2107-578.1,2097.3-577.9,2087.7
	 M-402.7,1814.4c-4.7,0-9.5,0.3-14.3,0.8c-69.8,7.8-120.1,70.6-112.4,140.4c0,0.4,0.1,0.8,0.1,1.2C-495,1915-445,1886-387,1879.6
	c8.1-0.9,16.2-1.3,24.1-1.3c27.1,0,53.2,5.1,77.3,14.5C-304.8,1846.1-350.8,1814.4-402.7,1814.4"/>
<path class="st1" d="M-285.5,1892.8c4.5,10.9,7.6,22.6,8.9,34.8c7.8,69.8-42.5,132.7-112.3,140.4c-4.8,0.5-9.5,0.8-14.2,0.8
	c-63.6,0-118.3-47.6-126.1-112c-29.6,36.1-47.5,81.8-48.7,130.8c37.4,24.5,82,38.5,129.1,38.5c8.7,0,17.6-0.5,26.4-1.5
	c104.9-11.6,186.2-90.1,206.1-188.3C-236.2,1917.7-259.7,1902.8-285.5,1892.8"/>
<path class="st2" d="M-448.1,1652.5c-8.8,0-17.6,0.5-26.5,1.5c-130,14.4-223.7,131.5-209.3,261.6c8.1,73.2,48.8,134.9,106,172.2
	c1.1-49,19.1-94.7,48.7-130.8c0-0.4-0.1-0.8-0.1-1.2c-7.8-69.8,42.6-132.7,112.4-140.4c4.8-0.5,9.6-0.8,14.3-0.8
	c51.9,0,97.9,31.7,117.2,78.4c25.8,10,49.2,24.9,69.2,43.6c4.8-23.5,6-48.1,3.2-73.2C-226.5,1742.1-329,1652.5-448.1,1652.5"/>
<rect x="-490.8" y="1956.3" class="st3" width="453" height="273.4"/>
<g>
	<g>
		<path class="st4" d="M627.2,0h-33.5L371.5,222.3c-7.7,7.7-20.8,2.2-20.8-8.6V0H0v800h800V217.3c-3.3,8.5-14.9,11.8-22.1,4.6
			l-84.7-84.7c-5.7-5.7-15-5.7-20.7,0L589,220.6c-7.2,7.2-18.9,7.2-26.1,0l-65.1-65.1c-7.2-7.2-7.2-18.9,0-26.1L627.2,0L627.2,0z"/>
	</g>
</g>
</svg>
