<?xml version="1.0" encoding="utf-8"?>
<!-- Generator: Adobe Illustrator 27.5.0, SVG Export Plug-In . SVG Version: 6.00 Build 0)  -->
<svg version="1.1" id="Layer_1" xmlns="http://www.w3.org/2000/svg" xmlns:xlink="http://www.w3.org/1999/xlink" x="0px" y="0px"
	 viewBox="0 0 595.3 841.9" style="enable-background:new 0 0 595.3 841.9;" xml:space="preserve">
<style type="text/css">
	.st0{fill:#FFFFFF;}
</style>
<path class="st0" d="M0,0v382.2c1.7,0.9,3.3,2.1,4.8,3.6l122.8,122.8c8.3,8.3,21.7,8.3,30,0l121-120.9c10.4-10.4,27.4-10.4,37.8,0
	l94.4,94.4c10.4,10.4,10.4,27.3-0.1,37.8l-322,322h506.6V0H0z M595.2,841.9h-91.6l-36-36c-8.3-8.3-21.7-8.3-30,0l-36,36H194
	l-9.5-9.5c-10.4-10.4-10.4-27.4,0-37.8l409.2-409.3c0.5-0.5,1-0.9,1.5-1.3V841.9z"/>
</svg>
