<svg width="692" height="224" viewBox="0 0 692 224" fill="none" xmlns="http://www.w3.org/2000/svg">
<path fill-rule="evenodd" clip-rule="evenodd" d="M232.5 0.918361C225.792 1.89036 216.364 6.17135 210.858 10.7463C201.791 18.2803 195.813 32.0984 195.851 45.4374C195.877 54.9454 197.059 59.9984 201.155 68.1124C214.787 95.1164 257.244 98.6583 274.075 74.1963C275.805 71.6823 276.833 69.2864 276.36 68.8714C275.887 68.4574 272.49 66.4663 268.812 64.4473L262.124 60.7764L259.405 64.3404C257.91 66.3004 254.62 69.1193 252.094 70.6053C248.193 72.8983 246.369 73.3024 240 73.2854C231.656 73.2634 228.293 71.9444 222.944 66.5954C213.472 57.1234 212.508 38.6864 220.882 27.1264C225.028 21.4034 232.612 17.7994 240.446 17.8274C248.279 17.8554 253.667 20.3294 258.507 26.1194L262.303 30.6614L269.679 25.6844L277.055 20.7073L275.278 17.6674C270.464 9.43635 259.568 2.72535 248 0.865352C240.771 -0.296648 240.892 -0.297639 232.5 0.918361ZM46.089 33.5554L14.009 66.3054L31.003 83.3003L47.998 100.296L79.755 68.5503C97.221 51.0903 111.932 36.8054 112.446 36.8054C112.96 36.8054 121.845 45.2274 132.19 55.5204L151 74.2364V37.5204V0.805355H114.585H78.17L46.089 33.5554ZM583.039 10.0554C583.139 11.2934 583.172 15.0923 583.111 18.4983L583 24.6903L578.75 24.9983L574.5 25.3054V32.8054V40.3054L578.618 40.6063L582.737 40.9074L583.194 59.1644C583.697 79.2324 584.678 83.1133 590.282 87.2104C595.118 90.7454 610.805 90.4494 615.533 86.7324C616.237 86.1794 616.249 83.8193 615.569 79.3083C614.491 72.1593 615.038 72.5283 608.306 74.3993C606.748 74.8323 605.372 74.2684 603.556 72.4524C601.04 69.9354 601 69.6623 601 54.7473V39.5984L608.25 39.9524L615.5 40.3054L615.792 32.5554L616.084 24.8054H608.542H601V16.3054V7.80535H591.928C583.134 7.80535 582.862 7.87435 583.039 10.0554ZM311 24.8054C299.756 26.7134 291.687 32.6324 286.801 42.5574C283.852 48.5494 283.503 50.1574 283.505 57.7814C283.506 65.2204 283.879 67.0424 286.435 72.0954C292.444 83.9744 303.065 90.1464 317.5 90.1464C332.018 90.1464 342.239 84.1594 348.121 72.2124C350.86 66.6464 351.316 64.6584 351.262 58.5044C351.17 48.1314 348.159 40.8044 341.077 33.7224C337.081 29.7264 334.054 27.6754 330.49 26.5514C324.018 24.5094 316.638 23.8484 311 24.8054ZM382.139 24.8934C373.963 27.3914 367.992 33.0943 363.849 42.3603C362.149 46.1643 361.647 49.1514 361.676 55.3054C361.763 74.3084 372.787 86.8183 389.428 86.7993C396.461 86.7923 401.47 85.2094 405.409 81.7504C407.254 80.1304 409.042 78.8054 409.382 78.8054C410.741 78.8054 409.839 86.5633 408.012 90.5893C403.679 100.134 387.627 101.803 375.673 93.9513C373.301 92.3933 371.59 91.8254 371.173 92.4584C370.803 93.0194 368.958 95.8534 367.074 98.7544L363.647 104.03L366.074 105.906C367.408 106.938 370.975 108.723 374 109.873C396.616 118.473 419.325 111.475 425.512 94.0004C427.747 87.6874 428.421 71.7524 427.52 46.5234L426.78 25.8054H418.39H410V30.0284C410 34.1224 409.953 34.1834 408.454 32.0434C407.604 30.8294 404.886 28.6504 402.414 27.2024C397.342 24.2294 387.849 23.1484 382.139 24.8934ZM462.353 25.8014C454.063 28.5164 447.233 34.7214 443.414 43.0054C440.932 48.3894 440.509 50.5414 440.505 57.8054C440.501 64.9194 440.928 67.2024 443.123 71.8054C447.975 81.9814 456.12 87.6823 468.663 89.6833C475.067 90.7043 485.335 89.3023 490.092 86.7563C493.327 85.0243 501.006 77.7293 500.963 76.4283C500.942 75.8103 498.444 73.8684 495.413 72.1114L489.9 68.9174L485.46 72.0463C479.607 76.1723 471.182 76.9713 466.241 73.8693C463.317 72.0343 459.013 66.4954 459.004 64.5554C459.002 64.1424 469.575 63.8054 482.5 63.8054H506V58.4104C506 45.2984 498.724 32.2634 488.654 27.3374C481.089 23.6354 470.798 23.0344 462.353 25.8014ZM531.81 25.1414C520.792 28.2524 515.438 35.3624 516.199 45.8744C516.927 55.9464 521.714 60.0284 537.316 63.8834C547.412 66.3784 551.655 69.1663 550.568 72.5923C549.641 75.5103 543.569 77.2674 537.537 76.3634C534.972 75.9784 529.913 74.1203 526.295 72.2343C522.676 70.3483 519.598 68.8054 519.453 68.8054C518.976 68.8054 513 79.7573 513 80.6313C513 82.0723 522.309 86.6504 528.535 88.2724C536.144 90.2544 546.224 90.2253 553.041 88.2003C565.849 84.3973 571.439 71.0733 564.828 60.1053C562.116 55.6073 557.693 53.1874 547.195 50.4614C542.19 49.1614 536.948 47.3464 535.547 46.4284C532.341 44.3274 532.143 40.3344 535.166 38.7164C538.462 36.9524 547.885 38.2064 553.779 41.1934C556.614 42.6304 559.167 43.8054 559.452 43.8054C559.738 43.8054 561.356 41.0634 563.048 37.7114C565.977 31.9094 566.037 31.5504 564.312 30.2434C558.233 25.6394 540.119 22.7954 531.81 25.1414ZM647.929 25.1083C641.788 26.8503 634.818 31.0484 631.446 35.0354C623.186 44.8024 620.984 59.7603 626.163 70.9253C629.853 78.8803 634.9 84.0384 642.194 87.3114C659.784 95.2054 679.5 88.9693 688.538 72.6533C691.205 67.8373 691.5 66.4094 691.5 58.3054C691.5 50.7004 691.097 48.4463 688.899 43.7593C685.232 35.9413 680.81 31.3293 673.559 27.7593C666.14 24.1073 655.381 22.9943 647.929 25.1083ZM467.5 39.6764C463.772 41.3794 459 47.5634 459 50.6914C459 51.4594 463.541 51.8054 473.608 51.8054H488.217L487.541 49.0554C486.426 44.5224 484.078 41.7444 479.672 39.7434C474.477 37.3844 472.54 37.3744 467.5 39.6764ZM312.619 40.8084C305.954 42.8764 301.993 49.1154 302.016 57.5054C302.048 68.7634 308.478 75.2874 318.791 74.5254C327.834 73.8564 332.995 67.9494 332.998 58.2674C333.002 46.2024 322.961 37.6004 312.619 40.8084ZM389 40.5113C383.781 42.4193 380 48.8413 380 55.7953C380 68.9103 390.418 75.4154 402.038 69.5554C416.039 62.4954 410.691 39.6173 395.102 39.8843C392.571 39.9273 389.825 40.2103 389 40.5113ZM649.588 42.0133C641.931 46.5003 639.312 57.6154 643.827 66.4664C649.536 77.6564 666.047 77.6564 671.357 66.4654C673.844 61.2234 673.541 51.8964 670.75 47.7954C665.526 40.1204 656.861 37.7523 649.588 42.0133ZM0 111.954V145.549L39.882 184.677L79.765 223.805H115.382H151V185.74V147.675L131.853 167.274C121.321 178.054 112.37 186.745 111.961 186.589C111.552 186.433 94.406 169.888 73.859 149.824C53.311 129.759 31.325 108.391 25 102.34C18.675 96.2894 10.462 88.4174 6.75 84.8484L0 78.3593V111.954ZM449.667 109.472C449.3 109.838 449 123.788 449 140.472V170.805H453H457V139.805V108.805H453.667C451.833 108.805 450.033 109.105 449.667 109.472ZM504.571 110.376C502.712 112.236 502.501 116.906 504.2 118.605C507.115 121.52 514 118.957 514 114.956C514 109.958 507.936 107.012 504.571 110.376ZM473.798 121.055C473.5 127.305 473.5 127.305 470.25 127.618C467.275 127.905 467 128.222 467 131.368C467 134.629 467.179 134.805 470.5 134.805H474V149.401C474 161.223 474.316 164.532 475.665 166.815C478.483 171.586 484.19 173.029 490.934 170.678C493.547 169.767 494.058 169.144 493.597 167.428C493.284 166.26 493.021 164.692 493.014 163.944C493.004 162.947 492.118 162.748 489.701 163.201C483.426 164.379 482.635 162.773 482.172 147.915L481.764 134.805H487.382H493V131.357V127.91L487.75 127.607L482.5 127.305L482.202 121.055L481.905 114.805H478H474.095L473.798 121.055ZM208.5 128.701C200.34 132.479 196 139.778 196 149.726C196 159.479 199.666 165.81 207.401 169.411C216.6 173.694 226.413 172.401 233.25 166.004C236.771 162.709 236.71 161.656 232.866 159.385C229.993 157.688 229.655 157.67 228.816 159.169C226.293 163.678 216.856 165.333 210.986 162.298C203.938 158.653 202.092 146.306 207.529 139.178C212.169 133.095 221.931 132.231 227.518 137.41C230.255 139.946 230.31 139.953 233.572 138.196L236.864 136.423L234.925 133.7C230.328 127.243 217.067 124.735 208.5 128.701ZM257.03 127.918C248.318 131.394 243.574 138.91 243.53 149.305C243.505 155.189 243.943 157.058 246.277 161.028C251.286 169.55 262.266 173.67 272.401 170.833C292.03 165.337 293.661 136.244 274.782 128.358C270.657 126.635 260.853 126.392 257.03 127.918ZM300.667 127.472C300.3 127.838 300 137.738 300 149.472V170.805H304.5H309V156.209C309 139.42 309.972 136.792 316.96 134.699C321.601 133.308 325.237 134.07 327.972 137.006C329.832 139.002 330 140.492 330 154.994V170.805H334.5H339L338.978 155.055C338.953 137.03 337.692 132.416 331.808 128.829C326.124 125.364 314.88 126.625 311.128 131.15C309.077 133.623 308 133.16 308 129.805C308 127.072 307.704 126.805 304.667 126.805C302.833 126.805 301.033 127.105 300.667 127.472ZM358.415 128.174C353.693 130.31 351 134.373 351 139.363C351 145.801 354.402 149.27 363.337 151.944C373.633 155.025 376 156.401 376 159.308C376 165.159 366.069 166.431 356.902 161.755L352.667 159.595L350.857 161.95C349.862 163.245 349.169 164.755 349.318 165.305C349.467 165.855 352.012 167.543 354.974 169.055C364.482 173.911 377.354 172.416 381.868 165.932C384.421 162.263 384.98 159.316 383.878 155.326C382.609 150.731 379.154 148.227 370.62 145.721C361.507 143.045 359 141.429 359 138.231C359 132.871 370.352 131.713 377.43 136.351C379.581 137.76 379.842 137.695 381.367 135.368C383.673 131.848 383.472 131.262 379.25 129.211C374.404 126.856 362.626 126.27 358.415 128.174ZM398.596 127.61L394.692 127.944L395.308 144.315C396.001 162.76 397.052 166.647 402.19 169.779C408.013 173.33 417.474 172.094 423.25 167.029C424.863 165.616 425 165.704 425 168.15C425 170.63 425.297 170.805 429.5 170.805H434V148.748V126.69L429.75 126.998L425.5 127.305L425.249 141.805C425.094 150.74 424.532 157.201 423.784 158.64C422.213 161.663 418.003 163.805 413.631 163.805C405.145 163.805 404 161.262 404 142.414C404 134.444 403.663 127.777 403.25 127.599C402.837 127.421 400.743 127.426 398.596 127.61ZM527.714 127.424C527.321 127.817 527 137.738 527 149.472V170.805H531.5H536V156.755C536 140.723 536.962 137.555 542.534 135.226C546.628 133.516 549.099 133.437 552.343 134.915C556.306 136.721 557 139.84 557 155.852V170.805H561.583H566.165L565.833 153.555C565.468 134.639 564.699 131.831 558.96 128.441C553.465 125.194 541.772 126.76 538.055 131.239C536.072 133.628 534.821 133.112 535.178 130.055C535.47 127.557 535.175 127.278 531.964 127.007C530.02 126.844 528.107 127.031 527.714 127.424ZM588.168 128.895C577.908 134.106 574.582 148.359 580.803 160.454C585.846 170.256 599.564 173.087 608.683 166.207C610.434 164.886 612.041 163.805 612.254 163.805C613.047 163.805 611.34 173.387 610.163 175.545C606.992 181.354 593.437 182.722 586.903 177.892C583.583 175.437 583.559 175.447 580.833 180.238C579.386 182.783 582.309 185.225 589.281 187.296C601.883 191.038 613.037 187.266 618.259 177.497C620.36 173.567 620.52 171.878 620.818 150.494L621.136 127.683L616.818 127.994C613.217 128.253 612.447 128.678 612.181 130.553L611.861 132.801L608.311 130.093C603.338 126.3 594.332 125.765 588.168 128.895ZM504 149.305V170.805H508.5H513V150.887C513 139.932 512.727 130.257 512.393 129.387C511.983 128.319 510.52 127.805 507.893 127.805H504V149.305ZM259.085 135.557C249.923 140.247 249.515 156.51 258.414 162.34C261.728 164.512 268.683 164.538 272.829 162.393C279.061 159.171 281.779 148.853 278.248 141.825C274.627 134.616 266.264 131.881 259.085 135.557ZM592.19 135.831C582.187 141.929 584.871 158.808 596.334 161.895C601.223 163.211 607.988 160.999 610.419 157.288C612.51 154.097 612.519 143.709 610.434 139.677C607.53 134.062 598.287 132.113 592.19 135.831Z" fill="#072E7D"/>
</svg>
