<svg version="1.1" id="Layer_1" xmlns="http://www.w3.org/2000/svg" x="0" y="0" width="800" height="800" xml:space="preserve"><style>.st1{fill:#fff}</style><path class="st1" d="M399.9 0C182.8 0 4.7 173.6.1 391.6c-4.6 220.9 170.7 403.7 391.5 408.3 2.9.1 5.8.1 8.7.1 217 0 395-173.7 399.6-391.7C804.5 187.5 629.2 4.6 408.4.1c-2.9-.1-5.7-.1-8.5-.1M254.8 285C265 175.4 357.3 90.3 468.5 90.3c1.5 0 3 0 4.6.1 118.6 2.5 212.7 100.7 210.2 219.3-1.8 86.5-54.4 160-128.8 192.5-33.2 50.2-90.1 83.1-154.4 83.1H396c-102.2-2.1-183.4-86.7-181.3-189 1-42.2 15.8-80.7 40.1-111.3" opacity=".05"/><path class="st1" d="M399.9 214.8c-58.6 0-111.1 27.4-145.1 70.2-.5 5.2-.8 10.4-.9 15.6-2.6 118.6 91.6 216.7 210.2 219.3h4.6c30.5 0 59.5-6.4 85.8-17.9 18.7-28.2 29.9-61.9 30.6-98.2 2.1-102.3-79-186.9-181.3-189-1.3.1-2.6 0-3.9 0m31.9 240.7h-2.1c-54.9-1.2-98.5-46.6-97.3-101.5 1.1-54.2 45.5-97.4 99.5-97.4h2.1c54.9 1.2 98.5 46.7 97.3 101.5-1.3 54.3-45.5 97.4-99.5 97.4" opacity=".1"/><path class="st1" d="M254.8 285c-24.3 30.6-39.1 69.1-40 111.1-2.1 102.3 79 186.9 181.3 189h4.1c64.3 0 121.1-32.9 154.4-83.1-26.3 11.5-55.3 17.9-85.8 17.9h-4.6C345.7 517.3 251.5 419.3 254 300.6c0-5.2.3-10.4.8-15.6" opacity=".2"/></svg>