<svg version="1.1" id="Layer_1" xmlns="http://www.w3.org/2000/svg" x="0" y="0" width="800" height="800" xml:space="preserve"><style>.st1{fill:#fff}</style><path class="st1" d="M400.2 0C240.3 0 89.2 96.5 27.6 254.4c-80.4 205.7 21.2 437.7 226.8 518 47.8 18.7 97.1 27.5 145.5 27.5 159.9 0 310.9-96.5 372.5-254.4 80.5-205.7-21.2-437.6-226.8-518.1C497.8 8.8 448.6 0 400.2 0M165.3 435.1c-45-57.8-59.3-137.2-30.7-210.4 33.1-84.7 114.2-136.6 200-136.6 26 0 52.5 4.8 78.2 14.8C523.3 146 577.9 270.5 534.6 381.1c-.7 1.8-1.4 3.6-2.2 5.3 7.2 44-1.3 90.7-27.5 131-35.5 54.5-94.9 84.2-155.5 84.2-34.6 0-69.6-9.7-100.8-29.9-48.8-31.8-77.8-82.8-83.3-136.6" opacity=".05"/><path class="st1" d="M349.8 231.2c-60.6 0-119.9 29.6-155.4 84.2-24 36.9-33.2 79.1-29.1 119.7 22.9 29.4 53.8 53.2 91.1 67.8 25.7 10.1 52.1 14.8 78.2 14.8 84 0 163.4-49.7 197.8-131.2-8.2-49.6-36.3-95.7-81.8-125.3-31.1-20.3-66.2-30-100.8-30m49.9 264.2c-18.6 0-37.4-5.2-54.1-16.1-46-30-59.1-91.7-29.1-137.7 19.1-29.3 51-45.2 83.5-45.2 18.6 0 37.4 5.2 54.1 16.1 46 29.9 59 91.6 29.1 137.6-19 29.4-51 45.3-83.5 45.3" opacity=".1"/><path class="st1" d="M532.4 386.5C498 468 418.6 517.7 334.6 517.7c-26 0-52.5-4.8-78.2-14.8-37.3-14.5-68.2-38.4-91.1-67.8 5.5 53.8 34.4 104.8 83.4 136.6 31.1 20.3 66.2 29.9 100.8 29.9 60.6 0 120-29.7 155.5-84.2 26.1-40.2 34.7-87 27.4-130.9" opacity=".2"/></svg>