<svg version="1.1" id="Layer_1" xmlns="http://www.w3.org/2000/svg" x="0" y="0" width="800" height="800" xml:space="preserve"><style>.st1{fill:#fff}</style><path class="st1" d="M400.6 0c-16.6 0-33.3 1-50.1 3.1C131.3 30.4-24.2 230.4 3.1 449.6 28.5 651.9 200.7 800 399.4 800c16.5 0 33.3-1 50.1-3.1 219.3-27.4 374.7-227.3 347.3-446.4C771.6 148.1 599.3 0 400.6 0M232.4 321.3c26.1-55.6 79.3-96.9 144.7-105 7.8-1 15.6-1.5 23.3-1.5 92 0 171.7 68.5 183.4 162.2 5.2 41.7-3.9 81.9-23.5 115.7 5.9 111.5-75.4 210.1-187.9 224.2-9 1.1-18 1.7-26.8 1.7-106.8 0-199.3-79.5-212.9-188.2-10.7-85.8 30.7-166.2 99.7-209.1" opacity=".05"/><path class="st1" d="M346 288.9c-8.8 0-17.8.5-26.7 1.7-31.9 4-61.3 14.8-86.9 30.7-14.4 30.6-20.6 65.6-16.1 101.6 11.7 93.7 91.5 162.2 183.4 162.2 7.7 0 15.5-.5 23.3-1.5 59.8-7.5 109.3-42.6 137.4-91-.3-5.2-.7-10.4-1.4-15.6-13.6-108.6-106.2-188.1-213-188.1m28.9 258.6c-49.5 0-92.3-36.8-98.6-87.1-6.8-54.5 31.8-104.2 86.4-111 4.2-.5 8.3-.8 12.4-.8 49.4 0 92.2 36.8 98.5 87.1 6.8 54.5-31.8 104.2-86.3 111-4.2.6-8.3.8-12.4.8" opacity=".1"/><path class="st1" d="M400.3 214.8c-7.7 0-15.4.5-23.3 1.5-65.4 8.1-118.6 49.5-144.7 105 25.6-15.9 55-26.7 86.9-30.7 9-1.1 17.9-1.7 26.7-1.7 106.8 0 199.4 79.4 212.9 188.2.6 5.2 1.1 10.4 1.4 15.6 19.6-33.8 28.7-74 23.5-115.7-11.6-93.7-91.4-162.2-183.4-162.2" opacity=".2"/></svg>