<svg version="1.1" id="Layer_1" xmlns="http://www.w3.org/2000/svg" x="0" y="0" width="800" height="800" xml:space="preserve"><style>.st1{fill:#fff}</style><path class="st1" d="M399.8 0C184.6 0 6.9 170.9.2 387.5c-7 220.8 166.4 405.4 387.2 412.3 4.3.1 8.5.2 12.7.2 215.1 0 392.8-170.9 399.6-387.5C806.7 191.7 633.3 7.1 412.4.2 408.3.1 404 0 399.8 0M364 168.8c36.8-29.6 83.6-47.2 134.2-47.2 2.3 0 4.6 0 6.9.1 118.6 3.7 211.6 102.8 208 221.4-3.7 116.2-99 208-214.5 208-2.3 0-4.6 0-6.9-.1-9.8-.3-19.5-1.3-29-2.9-43.5 49.6-107.3 80.7-177.9 80.7-2.5 0-5.1 0-7.6-.1-130.9-4-233.6-113.4-229.5-244.1 4-128.2 109.3-229.5 236.7-229.5 2.5 0 5 0 7.5.1 25.3.8 49.5 5.6 72.1 13.6m-53 62.4c-53.4 13.7-93.6 61.3-95.4 119.2-2.2 70.2 52.9 128.9 123.2 131.1h1.2c-36.5-39.9-58.1-93.5-56.3-151.8 1-35.8 10.8-69.3 27.3-98.5" opacity=".05"/><path class="st1" d="M364 168.8c-21.4 17.1-39.4 38.3-53 62.4 10.1-2.6 20.7-4 31.6-4 1.4 0 2.8 0 4.1.1 70.2 2.2 125.3 60.9 123.1 131.1-2.1 68.9-58.6 123.2-127 123.2h-2.9c31.6 34.4 74.3 58.6 122.7 66.7 35-39.8 56.9-91.6 58.7-148.8C524.6 294 458.4 202.4 364 168.8" opacity=".2"/><path class="st1" d="M284.4 155.1C157 155.1 51.7 256.3 47.7 384.6 43.6 515.3 146.3 624.7 277 628.8c2.5.1 5.1.1 7.6.1 70.6 0 134.4-31.1 177.9-80.7-48.4-8.1-91.1-32.3-122.7-66.7h-1.2c-70.2-2.2-125.3-60.9-123.2-131.1 1.8-57.9 42-105.5 95.4-119.2 13.6-24.1 31.6-45.2 53-62.4-22.6-8-46.8-12.8-72.1-13.6-2.3 0-4.8-.1-7.3-.1" opacity=".1"/></svg>