<svg version="1.1" id="Layer_1" xmlns="http://www.w3.org/2000/svg" x="0" y="0" width="800" height="800" xml:space="preserve"><style>.st1{fill:#fff}</style><path class="st1" d="M400.6 0c-14.8 0-29.7.8-44.7 2.5C136.4 26.8-21.9 224.6 2.5 444.2 25.2 648.7 198.4 800 399.5 800c14.7 0 29.6-.8 44.6-2.5 219.5-24.3 377.7-222.1 353.4-441.7C774.8 151.4 601.6 0 400.6 0M262.1 482.9c-57.2-37.4-97.8-99-106-172.2-14.4-130 79.3-247.2 209.3-261.6 8.9-1 17.7-1.5 26.5-1.5 119.1 0 221.6 89.7 235.1 210.7 2.8 25.1 1.5 49.7-3.2 73.2 36 33.8 60.7 80.1 66.5 133 13.1 117.9-71.8 224.1-189.7 237.2-8 .9-16.1 1.3-24 1.3-108 0-201-81.3-213.2-191.1-1.1-9.7-1.5-19.4-1.3-29m175.2-273.3c-4.7 0-9.5.3-14.3.8-69.8 7.8-120.1 70.6-112.4 140.4 0 .4.1.8.1 1.2C345 310.2 395 281.2 453 274.8c8.1-.9 16.2-1.3 24.1-1.3 27.1 0 53.2 5.1 77.3 14.5-19.2-46.7-65.2-78.4-117.1-78.4" opacity=".05"/><path class="st1" d="M554.5 288c4.5 10.9 7.6 22.6 8.9 34.8 7.8 69.8-42.5 132.7-112.3 140.4-4.8.5-9.5.8-14.2.8-63.6 0-118.3-47.6-126.1-112-29.6 36.1-47.5 81.8-48.7 130.8 37.4 24.5 82 38.5 129.1 38.5 8.7 0 17.6-.5 26.4-1.5 104.9-11.6 186.2-90.1 206.1-188.3-19.9-18.6-43.4-33.5-69.2-43.5" opacity=".2"/><path class="st1" d="M391.9 47.7c-8.8 0-17.6.5-26.5 1.5-130 14.4-223.7 131.5-209.3 261.6 8.1 73.2 48.8 134.9 106 172.2 1.1-49 19.1-94.7 48.7-130.8 0-.4-.1-.8-.1-1.2-7.8-69.8 42.6-132.7 112.4-140.4 4.8-.5 9.6-.8 14.3-.8 51.9 0 97.9 31.7 117.2 78.4 25.8 10 49.2 24.9 69.2 43.6 4.8-23.5 6-48.1 3.2-73.2C613.5 137.3 511 47.7 391.9 47.7" opacity=".1"/></svg>