<svg width="140" height="37" viewBox="0 0 140 37" fill="none" xmlns="http://www.w3.org/2000/svg">
<g clip-path="url(#clip0_919_10470)">
<path d="M94.7492 3.43951H92.5792C92.5008 3.43951 92.4378 3.50251 92.4378 3.58091V8.14211C91.511 7.21531 90.3336 6.75191 89.0974 6.75191C86.4332 6.75191 84.2702 8.95271 84.2702 12.1587C84.2702 15.3647 86.548 17.5459 89.1548 17.5459C90.4484 17.5459 91.5292 17.0825 92.4378 16.1949V17.1343C92.4378 17.2127 92.5008 17.2757 92.5792 17.2757H94.7492C94.8276 17.2757 94.8906 17.2127 94.8906 17.1343V3.58091C94.8906 3.50251 94.8276 3.43951 94.7492 3.43951ZM89.544 15.1897C87.899 15.1897 86.7104 13.8961 86.7104 12.1391C86.7104 10.3821 87.801 9.10811 89.544 9.10811C91.287 9.10811 92.4378 10.3247 92.4378 12.1195C92.4378 13.9143 91.1694 15.1897 89.544 15.1897ZM83.2272 12.1391C83.2272 15.1127 80.9298 17.5459 77.8022 17.5459C74.6746 17.5459 72.4724 15.1715 72.4724 12.1587C72.4724 9.14591 74.9826 6.75191 77.7826 6.75191C80.7758 6.75191 83.2272 9.10671 83.2272 12.1391ZM74.9126 12.1391C74.9126 13.9213 76.0718 15.1883 77.8204 15.1883C79.569 15.1883 80.7884 13.9997 80.7884 12.1587C80.7884 10.3177 79.5886 9.10951 77.8204 9.10951C76.0522 9.10951 74.9126 10.3961 74.9126 12.1391ZM71.645 23.0381H69.475C69.3966 23.0381 69.3336 23.1011 69.3336 23.1795V24.1581C68.4068 23.2313 67.2294 22.7679 65.9932 22.7679C63.329 22.7679 61.166 24.9687 61.166 28.1747C61.166 31.3807 63.4438 33.5619 66.0506 33.5619C67.3442 33.5619 68.425 33.0985 69.3336 32.2109V33.1503C69.3336 33.2287 69.3966 33.2917 69.475 33.2917H71.645C71.7234 33.2917 71.7864 33.2287 71.7864 33.1503V23.1809C71.7864 23.1025 71.7234 23.0395 71.645 23.0395V23.0381ZM66.4398 31.2057C64.7948 31.2057 63.6062 29.9121 63.6062 28.1551C63.6062 26.3981 64.6968 25.1241 66.4398 25.1241C68.1828 25.1241 69.3336 26.3407 69.3336 28.1355C69.3336 29.9303 68.0652 31.2057 66.4398 31.2057ZM46.8608 19.4275H49.2268C49.287 19.4275 49.3416 19.4667 49.3612 19.5241L52.535 29.1001L55.7466 19.5227C55.7662 19.4653 55.8194 19.4261 55.881 19.4261H58.2078C58.2764 19.4261 58.3352 19.4765 58.3478 19.5437L60.6368 33.1237C60.6508 33.2105 60.585 33.2889 60.4968 33.2889H58.2344C58.1658 33.2889 58.107 33.2385 58.0958 33.1713L56.6286 24.5235L53.7068 33.1923C53.6872 33.2497 53.634 33.2889 53.5724 33.2889H51.4584C51.3982 33.2889 51.3436 33.2497 51.324 33.1923L48.44 24.5235L46.935 33.1727C46.9238 33.2399 46.865 33.2903 46.7964 33.2903H44.5158C44.4276 33.2903 44.3618 33.2119 44.3772 33.1251L46.7222 19.5451C46.7334 19.4779 46.7922 19.4275 46.8608 19.4275ZM84.1484 19.4275H86.3142C86.4178 19.4275 86.5032 19.5115 86.5032 19.6165V27.2661L90.2244 23.1291C90.2776 23.0703 90.3518 23.0367 90.4302 23.0367H93.2008C93.3212 23.0367 93.3842 23.1781 93.3044 23.2677L89.2234 27.8317C89.159 27.9045 89.159 28.0151 89.2262 28.0865L93.8364 33.0565C93.919 33.1447 93.856 33.2903 93.7342 33.2903H90.9874C90.9104 33.2903 90.8362 33.2581 90.783 33.2007L86.5018 28.5597V33.1013C86.5018 33.2049 86.4178 33.2903 86.3128 33.2903H84.147C84.0434 33.2903 83.958 33.2063 83.958 33.1013V19.6165C83.958 19.5129 84.042 19.4275 84.147 19.4275H84.1484ZM114.46 26.2819V33.1489C114.46 33.2273 114.397 33.2903 114.318 33.2903H112.162C112.084 33.2903 112.021 33.2273 112.021 33.1489V28.4435C112.021 26.4163 111.836 25.1227 110.176 25.1227C109.417 25.1227 108.76 25.4699 108.331 26.1069C107.776 26.9371 107.797 27.8639 107.797 28.9265V33.1489C107.797 33.2273 107.734 33.2903 107.656 33.2903H105.489C105.41 33.2903 105.347 33.2273 105.347 33.1489V23.1795C105.347 23.1011 105.41 23.0381 105.489 23.0381H107.485C107.563 23.0381 107.626 23.1011 107.626 23.1795V24.1581C107.908 23.8767 108.216 23.6429 108.539 23.4469C109.094 23.1333 109.682 22.9191 110.27 22.8239C110.305 22.8183 110.34 22.8127 110.375 22.8085C110.435 22.8001 110.496 22.7931 110.557 22.7875C110.69 22.7763 110.824 22.7693 110.958 22.7693C110.961 22.7693 110.964 22.7693 110.968 22.7693C112.871 22.7791 114.463 24.0895 114.463 26.2819H114.46ZM125.621 23.0381H127.701C127.805 23.0381 127.89 23.1221 127.89 23.2271V33.1027C127.89 33.2063 127.806 33.2917 127.701 33.2917H125.621C125.517 33.2917 125.432 33.2077 125.432 33.1027V23.2271C125.432 23.1235 125.516 23.0381 125.621 23.0381ZM127.779 21.5541H125.544C125.492 21.5541 125.45 21.5121 125.45 21.4603V19.5199C125.45 19.4681 125.492 19.4261 125.544 19.4261H127.779C127.831 19.4261 127.873 19.4681 127.873 19.5199V21.4603C127.873 21.5121 127.831 21.5541 127.779 21.5541ZM104.251 27.9493C104.069 25.0793 101.71 22.7735 98.8358 22.7665C95.5248 22.7581 93.4906 25.3495 93.4906 28.1537L93.5228 28.1635H93.4906C93.4948 31.1679 95.5962 33.5549 98.8526 33.5549C100.926 33.5549 102.341 32.9151 103.425 31.4829C103.496 31.3891 103.46 31.2519 103.354 31.2015L101.514 30.3307C101.444 30.2971 101.361 30.3125 101.305 30.3643C100.621 30.9971 99.904 31.2785 98.8526 31.2785C98.8526 31.2785 96.3858 31.4143 95.9784 28.9055H95.9826H104.062C104.163 28.9055 104.245 28.8271 104.25 28.7263C104.259 28.5177 104.278 28.3707 104.251 27.9479V27.9493ZM96.1926 26.8797C96.6784 25.5861 97.629 24.9491 98.8596 24.9491C100.184 24.9491 101.247 25.6827 101.583 26.8797H96.1926ZM139.986 27.9493C139.804 25.0793 137.445 22.7735 134.571 22.7665C131.26 22.7581 129.226 25.3495 129.226 28.1537L129.258 28.1635H129.226C129.23 31.1679 131.331 33.5549 134.588 33.5549C136.661 33.5549 138.078 32.9151 139.16 31.4829C139.231 31.3891 139.195 31.2519 139.089 31.2015L137.249 30.3307C137.179 30.2971 137.096 30.3125 137.04 30.3643C136.356 30.9971 135.639 31.2785 134.588 31.2785C134.588 31.2785 132.121 31.4143 131.712 28.9055H131.716H139.796C139.896 28.9055 139.979 28.8271 139.983 28.7263C139.992 28.5177 140.011 28.3707 139.985 27.9479L139.986 27.9493ZM131.928 26.8797C132.412 25.5861 133.364 24.9491 134.595 24.9491C135.919 24.9491 136.982 25.6827 137.318 26.8797H131.928ZM71.4294 12.1391C71.4294 15.1127 69.132 17.5459 66.0044 17.5459C62.8768 17.5459 60.6746 15.1715 60.6746 12.1587C60.6746 9.14591 63.1848 6.75191 65.9848 6.75191C68.978 6.75191 71.4294 9.10671 71.4294 12.1391ZM63.1148 12.1391C63.1148 13.9213 64.274 15.1883 66.0226 15.1883C67.7712 15.1883 68.9906 13.9997 68.9906 12.1587C68.9906 10.3177 67.7908 9.10951 66.0226 9.10951C64.2544 9.10951 63.1148 10.3961 63.1148 12.1391ZM58.1784 17.3037H55.8852C55.804 17.3037 55.7326 17.2519 55.706 17.1749L52.5434 7.63111L49.343 17.1763C49.3178 17.2533 49.245 17.3051 49.1638 17.3051H46.9098C46.8174 17.3051 46.739 17.2393 46.7236 17.1483L44.4528 3.65931C44.4332 3.54451 44.5214 3.43951 44.639 3.43951H46.8062C46.8986 3.43951 46.977 3.50531 46.9924 3.59631L48.4526 12.2049L51.3618 3.56831C51.387 3.49131 51.4598 3.43951 51.541 3.43951H53.5864C53.6676 3.43951 53.739 3.49131 53.7656 3.56831L56.6384 12.2049L58.1364 3.59491C58.1518 3.50531 58.2302 3.43951 58.3226 3.43951H60.508C60.6256 3.43951 60.7138 3.54451 60.6942 3.65931L58.3646 17.1455C58.3492 17.2365 58.2708 17.3023 58.1784 17.3023V17.3037ZM82.8758 31.4829C81.7936 32.9165 80.3768 33.5549 78.3034 33.5549C75.047 33.5549 72.9456 31.1679 72.9414 28.1635C72.9456 25.1591 75.047 22.7721 78.3034 22.7721C80.3768 22.7721 81.7922 23.4119 82.8758 24.8441C82.9472 24.9379 82.9108 25.0751 82.8044 25.1255L80.9648 25.9963C80.8948 26.0299 80.8122 26.0145 80.7562 25.9627C80.0716 25.3299 79.3548 25.0485 78.3034 25.0485C78.3034 25.0485 75.3704 24.8833 75.3704 28.1635C75.3704 31.4437 78.3034 31.2785 78.3034 31.2785C79.3548 31.2785 80.0716 30.9957 80.7562 30.3643C80.8136 30.3125 80.8948 30.2971 80.9648 30.3307L82.8044 31.2015C82.9108 31.2519 82.9472 31.3891 82.8758 31.4829ZM123.994 31.2505V33.1489C123.994 33.2273 123.932 33.2903 123.854 33.2903H115.892C115.783 33.2903 115.716 33.1727 115.769 33.0789L120.273 25.2207H116.504C116.425 25.2207 116.362 25.1577 116.362 25.0793V23.1809C116.362 23.1025 116.425 23.0395 116.504 23.0395H123.977C124.086 23.0395 124.153 23.1571 124.1 23.2509L119.596 31.1105H123.852C123.931 31.1105 123.995 31.1735 123.995 31.2519L123.994 31.2505ZM23.8756 9.02971C24.1402 9.29431 24.2886 9.65271 24.2886 10.0265C24.2886 10.4003 24.1402 10.7587 23.8756 11.0233L1.6114 33.2847C1.3412 33.5549 0.9352 33.6361 0.5824 33.4891C0.2296 33.3421 0 32.9991 0 32.6169V4.52171C0 4.08491 0.2632 3.69011 0.6664 3.52351C1.0696 3.35691 1.5358 3.44791 1.8452 3.75731L8.5078 10.4171C8.9586 10.8679 9.6894 10.8679 10.1388 10.4171L16.7062 3.85251C17.2564 3.30231 18.1482 3.30231 18.6984 3.85251L23.8756 9.02971ZM11.5794 27.9703C11.3148 27.7057 11.1664 27.3473 11.1664 26.9735C11.1664 26.5997 11.3148 26.2413 11.5794 25.9767L33.8436 3.71531C34.1138 3.44511 34.5198 3.36531 34.8726 3.51091C35.2254 3.65651 35.455 4.00091 35.455 4.38311V32.4783C35.455 32.9151 35.1918 33.3099 34.7886 33.4765C34.3854 33.6431 33.9206 33.5521 33.6112 33.2427L26.9486 26.5829C26.4978 26.1321 25.767 26.1321 25.3176 26.5829L18.7516 33.1475C18.2014 33.6977 17.3096 33.6977 16.7594 33.1475L11.5822 27.9703H11.5794Z" fill="white"/>
</g>
<defs>
<clipPath id="clip0_919_10470">
<rect width="140" height="37" fill="white"/>
</clipPath>
</defs>
</svg>
